# Blender 4.0.0 Alpha
# www.blender.org
mtllib rabenauge.mtl
o Text
v 4.666667 0.000000 -0.777778
v 4.666667 0.000000 -0.555556
v 4.000000 0.000000 -0.555556
v 4.000000 0.000000 -0.500000
v 4.666667 0.000000 -0.500000
v 4.666667 0.000000 -0.277778
v 4.000000 0.000000 -0.277778
v 4.000000 0.000000 -0.222222
v 4.666667 0.000000 -0.222222
v 4.666667 0.000000 0.000000
v 3.722222 0.000000 0.000000
v 3.722222 0.000000 -0.777778
v 3.666667 0.000000 -0.777778
v 3.666667 0.000000 -0.555556
v 3.060000 0.000000 -0.555556
v 2.944445 0.000000 -0.440000
v 2.944445 0.000000 -0.337778
v 3.060000 0.000000 -0.222222
v 3.388889 0.000000 -0.222222
v 3.388889 0.000000 -0.277778
v 3.111111 0.000000 -0.277778
v 3.111111 0.000000 -0.500000
v 3.666667 0.000000 -0.500000
v 3.666667 0.000000 0.000000
v 2.888889 0.000000 0.000000
v 2.666667 0.000000 -0.222222
v 2.666667 0.000000 -0.555556
v 2.888889 0.000000 -0.777778
v 1.611112 0.000000 -0.222222
v 1.611112 0.000000 -0.777778
v 1.888889 0.000000 -0.777778
v 1.888889 0.000000 -0.337778
v 2.004445 0.000000 -0.222222
v 2.217778 0.000000 -0.222222
v 2.333334 0.000000 -0.337778
v 2.333334 0.000000 -0.777778
v 2.611112 0.000000 -0.777778
v 2.611112 0.000000 -0.222222
v 2.388889 0.000000 0.000000
v 1.833334 0.000000 0.000000
v 1.162223 0.000000 -0.555556
v 0.948889 0.000000 -0.555556
v 0.833334 0.000000 -0.440000
v 0.833334 0.000000 -0.388889
v 1.277778 0.000000 -0.388889
v 1.277778 0.000000 -0.440000
v 1.333334 0.000000 -0.777778
v 1.555556 0.000000 -0.555556
v 1.555556 0.000000 0.000000
v 1.277778 0.000000 0.000000
v 1.277778 0.000000 -0.166667
v 0.833334 0.000000 -0.166667
v 0.833334 0.000000 0.000000
v 0.555556 0.000000 0.000000
v 0.555556 0.000000 -0.555556
v 0.777778 0.000000 -0.777778
v -0.277778 0.000000 -0.442222
v -0.277778 0.000000 0.000000
v -0.555555 0.000000 0.000000
v -0.555555 0.000000 -0.777778
v -0.220000 0.000000 -0.777778
v 0.222222 0.000000 -0.335556
v 0.222222 0.000000 -0.777778
v 0.500000 0.000000 -0.777778
v 0.500000 0.000000 0.000000
v 0.164445 0.000000 0.000000
v -0.611111 0.000000 -0.777778
v -0.611111 0.000000 -0.555556
v -1.277778 0.000000 -0.555556
v -1.277778 0.000000 -0.500000
v -0.611111 0.000000 -0.500000
v -0.611111 0.000000 -0.277778
v -1.277778 0.000000 -0.277778
v -1.277778 0.000000 -0.222222
v -0.611111 0.000000 -0.222222
v -0.611111 0.000000 0.000000
v -1.555556 0.000000 0.000000
v -1.555556 0.000000 -0.777778
v -2.333333 0.000000 -0.500000
v -2.004445 0.000000 -0.500000
v -1.948889 0.000000 -0.555556
v -2.333333 0.000000 -0.555556
v -2.611111 0.000000 -0.777778
v -1.611111 0.000000 -0.777778
v -1.611111 0.000000 -0.500000
v -1.722222 0.000000 -0.388889
v -1.611111 0.000000 -0.277778
v -1.611111 0.000000 0.000000
v -2.611111 0.000000 0.000000
v -2.333333 0.000000 -0.277778
v -2.333333 0.000000 -0.222222
v -1.948889 0.000000 -0.222222
v -2.004445 0.000000 -0.277778
v -3.060000 0.000000 -0.555556
v -3.273333 0.000000 -0.555556
v -3.388889 0.000000 -0.440000
v -3.388889 0.000000 -0.388889
v -2.944444 0.000000 -0.388889
v -2.944444 0.000000 -0.440000
v -2.888889 0.000000 -0.777778
v -2.666667 0.000000 -0.555556
v -2.666667 0.000000 0.000000
v -2.944444 0.000000 0.000000
v -2.944444 0.000000 -0.166667
v -3.388889 0.000000 -0.166667
v -3.388889 0.000000 0.000000
v -3.666667 0.000000 0.000000
v -3.666667 0.000000 -0.555556
v -3.444444 0.000000 -0.777778
v -4.115556 0.000000 -0.555556
v -4.444445 0.000000 -0.555556
v -4.444445 0.000000 -0.500000
v -4.060000 0.000000 -0.500000
v -3.944445 0.000000 -0.777778
v -3.722222 0.000000 -0.555556
v -3.722222 0.000000 -0.277778
v -3.942222 0.000000 -0.277778
v -3.664444 0.000000 0.000000
v -4.057778 0.000000 0.000000
v -4.335556 0.000000 -0.277778
v -4.444445 0.000000 -0.277778
v -4.444445 0.000000 0.000000
v -4.722222 0.000000 0.000000
v -4.722222 0.000000 -0.777778
vn -0.0000 1.0000 -0.0000
vn -0.0000 -1.0000 -0.0000
vt 0.909091 0.000000
vt 0.181818 0.000000
vt 1.000000 0.000000
vt 0.000000 0.000000
vt 0.090909 0.000000
vt 0.272727 0.000000
vt 0.545455 0.000000
vt 0.363636 0.000000
vt 0.454545 0.000000
vt 0.636364 0.000000
vt 0.727273 0.000000
vt 0.818182 0.000000
vt 0.933333 0.000000
vt 0.066667 0.000000
vt 0.866667 0.000000
vt 0.133333 0.000000
vt 0.200000 0.000000
vt 0.533333 0.000000
vt 0.666667 0.000000
vt 0.600000 0.000000
vt 0.466667 0.000000
vt 0.733333 0.000000
vt 0.266667 0.000000
vt 0.333333 0.000000
vt 0.400000 0.000000
vt 0.800000 0.000000
vt 0.222222 0.000000
vt 0.444444 0.000000
vt 0.555556 0.000000
vt 0.777778 0.000000
vt 0.888889 0.000000
vt 0.111111 0.000000
vt 0.714286 0.000000
vt 0.214286 0.000000
vt 0.285714 0.000000
vt 0.357143 0.000000
vt 0.142857 0.000000
vt 0.428571 0.000000
vt 0.071429 0.000000
vt 0.785714 0.000000
vt 0.500000 0.000000
vt 0.571429 0.000000
vt 0.857143 0.000000
vt 0.928571 0.000000
vt 0.642857 0.000000
s 0
f 11/1/1 3/2/1 12/3/1
f 3/2/1 1/4/1 12/3/1
f 3/2/1 2/5/1 1/4/1
f 11/1/1 4/6/1 3/2/1
f 11/1/1 7/7/1 4/6/1
f 7/7/1 5/8/1 4/6/1
f 7/7/1 6/9/1 5/8/1
f 11/1/1 8/10/1 7/7/1
f 11/1/1 9/11/1 8/10/1
f 11/1/1 10/12/1 9/11/1
f 27/13/1 13/4/1 28/3/1
f 27/13/1 14/14/1 13/4/1
f 26/15/1 15/16/1 27/13/1
f 15/16/1 14/14/1 27/13/1
f 26/15/1 16/17/1 15/16/1
f 21/18/1 23/19/1 22/20/1
f 21/18/1 20/21/1 23/19/1
f 20/21/1 24/22/1 23/19/1
f 26/15/1 17/23/1 16/17/1
f 26/15/1 18/24/1 17/23/1
f 19/25/1 24/22/1 20/21/1
f 25/26/1 18/24/1 26/15/1
f 25/26/1 19/25/1 18/24/1
f 25/26/1 24/22/1 19/25/1
f 29/4/1 31/2/1 30/5/1
f 29/4/1 32/6/1 31/2/1
f 35/7/1 37/11/1 36/10/1
f 35/7/1 38/12/1 37/11/1
f 29/4/1 33/8/1 32/6/1
f 34/9/1 38/12/1 35/7/1
f 40/3/1 33/8/1 29/4/1
f 40/3/1 34/9/1 33/8/1
f 40/3/1 38/12/1 34/9/1
f 40/3/1 39/1/1 38/12/1
f 55/13/1 47/25/1 56/3/1
f 55/13/1 48/21/1 47/25/1
f 54/15/1 43/16/1 55/13/1
f 43/16/1 42/14/1 55/13/1
f 42/14/1 48/21/1 55/13/1
f 41/4/2 48/21/2 42/14/2
f 46/24/1 48/21/1 41/4/1
f 46/24/1 49/18/1 48/21/1
f 54/15/1 44/17/1 43/16/1
f 45/23/1 49/18/1 46/24/1
f 54/15/1 52/22/1 44/17/1
f 52/22/1 45/23/1 44/17/1
f 52/22/1 51/19/1 45/23/1
f 51/19/1 49/18/1 45/23/1
f 54/15/1 53/26/1 52/22/1
f 50/20/1 49/18/1 51/19/1
f 59/27/1 61/28/1 60/24/1
f 59/27/1 57/4/1 61/28/1
f 57/4/1 62/29/1 61/28/1
f 62/29/1 64/30/1 63/19/1
f 62/29/1 65/31/1 64/30/1
f 59/27/1 58/32/1 57/4/1
f 66/3/1 62/29/1 57/4/1
f 66/3/1 65/31/1 62/29/1
f 77/1/1 69/2/1 78/3/1
f 69/2/1 67/4/1 78/3/1
f 69/2/1 68/5/1 67/4/1
f 77/1/1 70/6/1 69/2/1
f 77/1/1 73/7/1 70/6/1
f 73/7/1 71/8/1 70/6/1
f 73/7/1 72/9/1 71/8/1
f 77/1/1 74/10/1 73/7/1
f 77/1/1 75/11/1 74/10/1
f 77/1/1 76/12/1 75/11/1
f 89/33/1 82/34/1 83/35/1
f 82/34/1 84/36/1 83/35/1
f 82/34/1 81/37/1 84/36/1
f 81/37/1 85/38/1 84/36/1
f 89/33/1 79/4/1 82/34/1
f 80/39/1 85/38/1 81/37/1
f 89/33/1 90/40/1 79/4/1
f 90/40/1 80/39/1 79/4/1
f 90/40/1 85/38/1 80/39/1
f 90/40/1 86/41/1 85/38/1
f 90/40/1 87/42/1 86/41/1
f 89/33/1 91/43/1 90/40/1
f 93/3/1 87/42/1 90/40/1
f 92/44/1 87/42/1 93/3/1
f 92/44/1 88/45/1 87/42/1
f 89/33/1 92/44/1 91/43/1
f 89/33/1 88/45/1 92/44/1
f 108/13/1 100/25/1 109/3/1
f 108/13/1 101/21/1 100/25/1
f 107/15/1 96/16/1 108/13/1
f 96/16/1 95/14/1 108/13/1
f 95/14/1 101/21/1 108/13/1
f 94/4/1 101/21/1 95/14/1
f 99/24/1 101/21/1 94/4/1
f 99/24/1 102/18/1 101/21/1
f 107/15/1 97/17/1 96/16/1
f 98/23/1 102/18/1 99/24/1
f 107/15/1 105/22/1 97/17/1
f 105/22/1 98/23/1 97/17/1
f 105/22/1 104/19/1 98/23/1
f 104/19/1 102/18/1 98/23/1
f 107/15/1 106/26/1 105/22/1
f 103/20/1 102/18/1 104/19/1
f 123/44/1 111/39/1 124/3/1
f 111/39/1 114/35/1 124/3/1
f 111/39/1 115/36/1 114/35/1
f 123/44/1 112/37/1 111/39/1
f 110/4/1 115/36/1 111/39/1
f 113/34/1 115/36/1 110/4/1
f 113/34/1 116/38/1 115/36/1
f 123/44/1 121/40/1 112/37/1
f 121/40/1 113/34/1 112/37/1
f 121/40/1 116/38/1 113/34/1
f 123/44/1 122/43/1 121/40/1
f 120/33/1 116/38/1 121/40/1
f 119/45/1 117/41/1 120/33/1
f 117/41/1 116/38/1 120/33/1
f 119/45/1 118/42/1 117/41/1
